<?xml version="1.0" encoding="utf-8"?>
<!-- Generator: Adobe Illustrator 24.0.0, SVG Export Plug-In . SVG Version: 6.00 Build 0)  -->
<svg version="1.1" id="Layer_1" xmlns="http://www.w3.org/2000/svg" xmlns:xlink="http://www.w3.org/1999/xlink" x="0px" y="0px"
	 viewBox="0 0 28 28" style="enable-background:new 0 0 28 28;" xml:space="preserve">
<style type="text/css">
	.st0{fill:#F45E43;}
	.st1{fill:#F63A4D;}
	.st2{fill:#E0BB22;}
</style>
<path class="st0" d="M18.7,10c0,1-0.8,1.8-1.8,1.8c0,0,0,0,0,0c-1,0-1.8-0.8-1.8-1.8l0,0c0-1,0.8-1.8,1.8-1.8l0,0
	C17.9,8.3,18.7,9.1,18.7,10L18.7,10z"/>
<path class="st1" d="M6.5,15.1c0,1-0.8,1.8-1.8,1.8S3,16.1,3,15.1s0.8-1.8,1.8-1.8S6.5,14.2,6.5,15.1z"/>
<path class="st0" d="M18.7,20.2c0,1-0.8,1.8-1.8,1.8h0c-1,0-1.8-0.8-1.8-1.8v0c0-1,0.8-1.8,1.8-1.8h0C17.9,18.4,18.7,19.2,18.7,20.2
	L18.7,20.2z M12.2,11.8H4.8C3.8,11.8,3,11,3,10s0.8-1.8,1.8-1.8h7.4c1,0,1.8,0.8,1.8,1.8S13.2,11.8,12.2,11.8z M16.9,16.9H9.4
	c-1,0-1.8-0.8-1.8-1.8s0.8-1.8,1.8-1.8h7.4c1,0,1.8,0.8,1.8,1.8S17.8,16.9,16.9,16.9z M12.2,21.9H4.8c-1,0-1.8-0.8-1.8-1.8
	c0-1,0.8-1.8,1.8-1.8h7.4c1,0,1.8,0.8,1.8,1.8C14,21.1,13.2,21.9,12.2,21.9z"/>
<g>
	<path class="st2" d="M15.2,2.6h6.2l5,11.1h-5.6L15.2,2.6z"/>
</g>
</svg>
